STARTFONT 2.1
FONT -FontForge-Baloo Chettan-Book-R-Normal--20-190-75-75-P-102-ISO10646-1
SIZE 19 75 75
FONTBOUNDINGBOX 21 21 0 -5
COMMENT "Generated by fontforge, http://fontforge.sourceforge.net"
COMMENT "Copyright (c) 2015 Ek Type (www.ektype.in)"
STARTPROPERTIES 39
FOUNDRY "FontForge"
FAMILY_NAME "Baloo Chettan"
WEIGHT_NAME "Book"
SLANT "R"
SETWIDTH_NAME "Normal"
ADD_STYLE_NAME ""
PIXEL_SIZE 20
POINT_SIZE 190
RESOLUTION_X 75
RESOLUTION_Y 75
SPACING "P"
AVERAGE_WIDTH 102
CHARSET_REGISTRY "ISO10646"
CHARSET_ENCODING "1"
FONTNAME_REGISTRY ""
CHARSET_COLLECTIONS "ISO8859-2 ISO8859-9 ISO8859-4 ISO10646-1"
FONT_NAME "BalooChettan-Regular"
FACE_NAME "Baloo Chettan Regular"
COPYRIGHT "Copyright (c) 2015 Ek Type (www.ektype.in)"
FONT_VERSION "1.443;PS 1.000;hotconv 16.6.51;makeotf.lib2.5.65220; ttfautohint (v1.6)"
FONT_ASCENT 16
FONT_DESCENT 4
UNDERLINE_POSITION -2
UNDERLINE_THICKNESS 1
X_HEIGHT 9
CAP_HEIGHT 11
RAW_ASCENT 800
RAW_DESCENT 200
NORM_SPACE 4
RELATIVE_WEIGHT 40
RELATIVE_SETWIDTH 50
SUPERSCRIPT_X 0
SUPERSCRIPT_Y 7
SUPERSCRIPT_SIZE 12
SUBSCRIPT_X 0
SUBSCRIPT_Y 1
SUBSCRIPT_SIZE 12
AVG_LOWERCASE_WIDTH 106
AVG_UPPERCASE_WIDTH 120
ENDPROPERTIES
CHARS 95
STARTCHAR space
ENCODING 32
SWIDTH 200 0
DWIDTH 4 0
BBX 1 1 0 0
BITMAP
00
ENDCHAR
STARTCHAR exclam
ENCODING 33
SWIDTH 298 0
DWIDTH 6 0
BBX 4 13 1 0
BITMAP
E0
F0
F0
F0
F0
F0
F0
E0
60
60
F0
F0
60
ENDCHAR
STARTCHAR quotedbl
ENCODING 34
SWIDTH 410 0
DWIDTH 8 0
BBX 7 5 1 8
BITMAP
CC
EE
EE
CC
CC
ENDCHAR
STARTCHAR numbersign
ENCODING 35
SWIDTH 714 0
DWIDTH 14 0
BBX 13 12 1 0
BITMAP
1CE0
1CE0
FFF8
FFF8
FFF0
39C0
39C0
FFF0
FFF0
FFE0
7380
7380
ENDCHAR
STARTCHAR dollar
ENCODING 36
SWIDTH 565 0
DWIDTH 11 0
BBX 10 16 1 -2
BITMAP
1C00
1C00
7F80
FF80
F100
F000
FC00
FF00
7F80
0F80
03C0
C380
FF80
FF00
1C00
1C00
ENDCHAR
STARTCHAR percent
ENCODING 37
SWIDTH 799 0
DWIDTH 16 0
BBX 14 12 1 0
BITMAP
7860
FC70
CCE0
CDC0
FD80
7B80
0778
0EFC
0ECC
1CCC
38FC
1078
ENDCHAR
STARTCHAR ampersand
ENCODING 38
SWIDTH 673 0
DWIDTH 13 0
BBX 12 12 1 0
BITMAP
1E00
3F00
7E00
3800
3CE0
7EE0
FFE0
E7E0
E3E0
FFE0
7FF0
3E60
ENDCHAR
STARTCHAR quotesingle
ENCODING 39
SWIDTH 219 0
DWIDTH 4 0
BBX 3 5 1 8
BITMAP
E0
E0
E0
E0
C0
ENDCHAR
STARTCHAR parenleft
ENCODING 40
SWIDTH 305 0
DWIDTH 6 0
BBX 5 16 1 -3
BITMAP
38
78
70
F0
F0
E0
E0
E0
E0
E0
E0
E0
F0
70
78
38
ENDCHAR
STARTCHAR parenright
ENCODING 41
SWIDTH 305 0
DWIDTH 6 0
BBX 5 16 0 -3
BITMAP
60
F0
70
78
38
38
38
38
38
38
38
38
78
70
F0
E0
ENDCHAR
STARTCHAR asterisk
ENCODING 42
SWIDTH 351 0
DWIDTH 7 0
BBX 7 6 0 7
BITMAP
30
3C
FE
7C
7C
6C
ENDCHAR
STARTCHAR plus
ENCODING 43
SWIDTH 545 0
DWIDTH 11 0
BBX 9 10 1 1
BITMAP
1C00
1C00
1C00
1C00
FF80
FF80
FF80
1C00
1C00
1C00
ENDCHAR
STARTCHAR comma
ENCODING 44
SWIDTH 243 0
DWIDTH 5 0
BBX 4 6 0 -2
BITMAP
70
70
70
F0
E0
E0
ENDCHAR
STARTCHAR hyphen
ENCODING 45
SWIDTH 354 0
DWIDTH 7 0
BBX 5 3 1 4
BITMAP
F8
F8
F8
ENDCHAR
STARTCHAR period
ENCODING 46
SWIDTH 238 0
DWIDTH 5 0
BBX 4 4 0 0
BITMAP
70
F0
F0
70
ENDCHAR
STARTCHAR slash
ENCODING 47
SWIDTH 343 0
DWIDTH 7 0
BBX 7 17 0 -2
BITMAP
08
0E
1E
1E
1C
1C
3C
38
38
38
78
70
70
F0
E0
E0
E0
ENDCHAR
STARTCHAR zero
ENCODING 48
SWIDTH 606 0
DWIDTH 12 0
BBX 10 12 1 0
BITMAP
1E00
7F80
7FC0
F3C0
E1C0
E1C0
E1C0
E1C0
F3C0
7FC0
7F80
1E00
ENDCHAR
STARTCHAR one
ENCODING 49
SWIDTH 393 0
DWIDTH 8 0
BBX 7 12 0 0
BITMAP
3C
FC
FE
7E
1E
1E
1E
1E
1E
1E
1E
1E
ENDCHAR
STARTCHAR two
ENCODING 50
SWIDTH 522 0
DWIDTH 10 0
BBX 9 12 1 0
BITMAP
7C00
FF00
FF00
0780
0700
0F00
1E00
3C00
F800
FF00
FF80
FF80
ENDCHAR
STARTCHAR three
ENCODING 51
SWIDTH 518 0
DWIDTH 10 0
BBX 9 12 1 0
BITMAP
7E00
FF00
FF00
0700
7F00
7E00
7F00
0780
8780
FF00
FF00
7C00
ENDCHAR
STARTCHAR four
ENCODING 52
SWIDTH 606 0
DWIDTH 12 0
BBX 12 12 0 0
BITMAP
0380
07C0
0FC0
1FC0
3DC0
79C0
71C0
FFF0
7FF0
7FE0
01C0
01C0
ENDCHAR
STARTCHAR five
ENCODING 53
SWIDTH 522 0
DWIDTH 10 0
BBX 9 12 1 0
BITMAP
7F00
FF00
FF00
E000
FE00
FF00
7F80
0780
8780
FF80
FF00
7E00
ENDCHAR
STARTCHAR six
ENCODING 54
SWIDTH 558 0
DWIDTH 11 0
BBX 10 12 1 0
BITMAP
1F00
7F80
7F00
EE00
FF00
FF80
E380
E3C0
E380
FF80
7F00
3E00
ENDCHAR
STARTCHAR seven
ENCODING 55
SWIDTH 482 0
DWIDTH 10 0
BBX 9 12 0 0
BITMAP
7F80
FF80
7F80
0780
0700
0F00
0F00
1E00
1E00
3C00
3C00
3800
ENDCHAR
STARTCHAR eight
ENCODING 56
SWIDTH 560 0
DWIDTH 11 0
BBX 9 12 1 0
BITMAP
3E00
7F80
FF80
E380
F780
7F00
7F80
E380
E380
FF80
FF80
3E00
ENDCHAR
STARTCHAR nine
ENCODING 57
SWIDTH 558 0
DWIDTH 11 0
BBX 9 12 1 0
BITMAP
3E00
7F00
FF80
E380
E380
FF80
7F80
3B80
0380
7F80
FF00
7C00
ENDCHAR
STARTCHAR colon
ENCODING 58
SWIDTH 258 0
DWIDTH 5 0
BBX 4 10 1 0
BITMAP
E0
F0
E0
E0
00
00
E0
F0
E0
E0
ENDCHAR
STARTCHAR semicolon
ENCODING 59
SWIDTH 266 0
DWIDTH 5 0
BBX 5 12 0 -2
BITMAP
70
78
78
70
00
00
30
78
78
70
F0
E0
ENDCHAR
STARTCHAR less
ENCODING 60
SWIDTH 471 0
DWIDTH 9 0
BBX 8 10 1 0
BITMAP
06
1F
7E
FC
F0
F0
FC
7E
1F
06
ENDCHAR
STARTCHAR equal
ENCODING 61
SWIDTH 489 0
DWIDTH 10 0
BBX 8 7 1 3
BITMAP
FF
FF
FF
00
FF
FF
FF
ENDCHAR
STARTCHAR greater
ENCODING 62
SWIDTH 471 0
DWIDTH 9 0
BBX 8 10 1 0
BITMAP
E0
F0
FC
3F
0F
1F
7E
FC
F0
E0
ENDCHAR
STARTCHAR question
ENCODING 63
SWIDTH 498 0
DWIDTH 10 0
BBX 9 12 0 0
BITMAP
3E00
FF80
7F80
0380
0780
3F80
3F00
3C00
1800
3C00
3C00
1800
ENDCHAR
STARTCHAR at
ENCODING 64
SWIDTH 1069 0
DWIDTH 21 0
BBX 20 18 1 -5
BITMAP
01FC00
0FFF00
1FFF80
3E03C0
78F9E0
71FCE0
F3FCF0
E79CF0
E79CF0
E79CE0
E7FFE0
F3FFC0
71FF80
780000
3E0000
1FF000
0FF000
01E000
ENDCHAR
STARTCHAR A
ENCODING 65
SWIDTH 627 0
DWIDTH 13 0
BBX 12 12 0 0
BITMAP
0F80
1F80
1FC0
1DC0
3DC0
39C0
3FE0
7FE0
7FE0
70F0
F0F0
7070
ENDCHAR
STARTCHAR B
ENCODING 66
SWIDTH 619 0
DWIDTH 12 0
BBX 11 12 1 0
BITMAP
7F00
FFC0
FFC0
F1C0
FFC0
FF80
FFC0
F1E0
F1E0
FFE0
FFC0
7F00
ENDCHAR
STARTCHAR C
ENCODING 67
SWIDTH 571 0
DWIDTH 11 0
BBX 10 12 1 0
BITMAP
1F80
3FC0
7FC0
F000
F000
E000
E000
F000
F000
7FC0
3FC0
1F80
ENDCHAR
STARTCHAR D
ENCODING 68
SWIDTH 666 0
DWIDTH 13 0
BBX 12 12 1 0
BITMAP
7F00
FFC0
FFE0
F1E0
F0E0
F0F0
F0F0
F0E0
F1E0
FFE0
FFC0
7F00
ENDCHAR
STARTCHAR E
ENCODING 69
SWIDTH 548 0
DWIDTH 11 0
BBX 9 12 1 0
BITMAP
7F80
FF80
FF80
F000
FF00
FF80
FF00
F000
F000
FF80
FF80
7F80
ENDCHAR
STARTCHAR F
ENCODING 70
SWIDTH 531 0
DWIDTH 11 0
BBX 9 12 1 0
BITMAP
7F80
FF80
FF80
F000
F000
FF00
FF80
FF00
F000
F000
F000
7000
ENDCHAR
STARTCHAR G
ENCODING 71
SWIDTH 664 0
DWIDTH 13 0
BBX 11 12 1 0
BITMAP
0FC0
3FE0
7FE0
F000
F3E0
E7E0
E3E0
F0E0
F0E0
7FE0
3FE0
1FC0
ENDCHAR
STARTCHAR H
ENCODING 72
SWIDTH 672 0
DWIDTH 13 0
BBX 11 12 1 0
BITMAP
F0E0
F0E0
F0E0
F0E0
FFE0
FFE0
FFE0
F0E0
F0E0
F0E0
F0E0
70E0
ENDCHAR
STARTCHAR I
ENCODING 73
SWIDTH 305 0
DWIDTH 6 0
BBX 4 12 1 0
BITMAP
F0
F0
F0
F0
F0
F0
F0
F0
F0
F0
F0
70
ENDCHAR
STARTCHAR J
ENCODING 74
SWIDTH 412 0
DWIDTH 8 0
BBX 7 12 0 0
BITMAP
1E
1E
1E
1E
1E
1E
1E
1E
1E
7E
FE
78
ENDCHAR
STARTCHAR K
ENCODING 75
SWIDTH 615 0
DWIDTH 12 0
BBX 11 12 1 0
BITMAP
F0C0
F1E0
F3C0
F7C0
FF80
FF00
FE00
FF00
F780
F3C0
F3E0
70C0
ENDCHAR
STARTCHAR L
ENCODING 76
SWIDTH 513 0
DWIDTH 10 0
BBX 9 12 1 0
BITMAP
F000
F000
F000
F000
F000
F000
F000
F000
F000
FF80
FF80
7F80
ENDCHAR
STARTCHAR M
ENCODING 77
SWIDTH 797 0
DWIDTH 16 0
BBX 14 12 1 0
BITMAP
7878
78F8
7CF8
FCF8
FCF8
FFFC
F7BC
F7BC
F7BC
F03C
E01C
E01C
ENDCHAR
STARTCHAR N
ENCODING 78
SWIDTH 679 0
DWIDTH 14 0
BBX 11 12 1 0
BITMAP
70E0
F8E0
FCE0
FCE0
FEE0
FEE0
F7E0
F7E0
F3E0
F3E0
F1E0
71E0
ENDCHAR
STARTCHAR O
ENCODING 79
SWIDTH 703 0
DWIDTH 14 0
BBX 12 12 1 0
BITMAP
1F80
3FC0
7FE0
F0F0
E070
E070
E070
E070
F0F0
7FE0
3FE0
1F80
ENDCHAR
STARTCHAR P
ENCODING 80
SWIDTH 581 0
DWIDTH 12 0
BBX 10 12 1 0
BITMAP
7F00
FF80
FFC0
F3C0
F1C0
FFC0
FF80
FF00
F000
F000
F000
7000
ENDCHAR
STARTCHAR Q
ENCODING 81
SWIDTH 705 0
DWIDTH 14 0
BBX 13 16 1 -4
BITMAP
1F80
3FC0
7FE0
F0F0
E070
E070
E070
E070
F0F0
7FE0
3FE0
1FE0
01F8
01F8
00F8
0070
ENDCHAR
STARTCHAR R
ENCODING 82
SWIDTH 609 0
DWIDTH 12 0
BBX 11 12 1 0
BITMAP
7F00
FF80
FFC0
F1C0
F1C0
FFC0
FF80
FF00
F780
F3C0
F3E0
71C0
ENDCHAR
STARTCHAR S
ENCODING 83
SWIDTH 551 0
DWIDTH 11 0
BBX 9 12 1 0
BITMAP
3F00
7F80
FF80
E000
F800
FF00
3F80
0780
8380
FF80
FF80
7E00
ENDCHAR
STARTCHAR T
ENCODING 84
SWIDTH 556 0
DWIDTH 11 0
BBX 11 12 0 0
BITMAP
7FE0
FFE0
7FC0
0E00
0E00
0E00
0E00
0E00
0E00
0E00
0E00
0E00
ENDCHAR
STARTCHAR U
ENCODING 85
SWIDTH 664 0
DWIDTH 13 0
BBX 11 12 1 0
BITMAP
E0E0
F0E0
F0E0
F0E0
F0E0
F0E0
F0E0
F0E0
F1E0
7FE0
7FC0
1F00
ENDCHAR
STARTCHAR V
ENCODING 86
SWIDTH 634 0
DWIDTH 13 0
BBX 12 12 0 0
BITMAP
F070
70F0
70F0
78F0
78E0
39E0
3DE0
1DC0
1DC0
1FC0
0F80
0F00
ENDCHAR
STARTCHAR W
ENCODING 87
SWIDTH 863 0
DWIDTH 17 0
BBX 16 12 1 0
BITMAP
E00E
E00F
E38F
F3CE
F7CE
F7CE
77EE
77FE
76FE
7EFC
3E7C
3C78
ENDCHAR
STARTCHAR X
ENCODING 88
SWIDTH 601 0
DWIDTH 12 0
BBX 12 12 0 0
BITMAP
70E0
F8E0
79E0
3FC0
1F80
1F80
1F80
3F80
3FC0
79E0
71F0
70E0
ENDCHAR
STARTCHAR Y
ENCODING 89
SWIDTH 574 0
DWIDTH 11 0
BBX 11 12 0 0
BITMAP
70E0
F1E0
79E0
79C0
3FC0
1F80
1F80
0F00
0F00
0F00
0F00
0F00
ENDCHAR
STARTCHAR Z
ENCODING 90
SWIDTH 560 0
DWIDTH 11 0
BBX 10 12 1 0
BITMAP
FF80
FF80
FF80
0F80
0F00
1E00
3C00
7C00
F800
FF80
FFC0
FF80
ENDCHAR
STARTCHAR bracketleft
ENCODING 91
SWIDTH 303 0
DWIDTH 6 0
BBX 5 16 1 -3
BITMAP
F8
F8
F0
E0
E0
E0
E0
E0
E0
E0
E0
E0
E0
F8
F8
F8
ENDCHAR
STARTCHAR backslash
ENCODING 92
SWIDTH 360 0
DWIDTH 7 0
BBX 7 17 0 -2
BITMAP
40
E0
E0
70
70
70
78
38
38
38
3C
1C
1C
1C
0E
0E
0E
ENDCHAR
STARTCHAR bracketright
ENCODING 93
SWIDTH 317 0
DWIDTH 6 0
BBX 5 16 0 -3
BITMAP
F8
F8
F8
38
38
38
38
38
38
38
38
38
38
78
F8
F8
ENDCHAR
STARTCHAR asciicircum
ENCODING 94
SWIDTH 488 0
DWIDTH 10 0
BBX 8 7 1 7
BITMAP
3C
7C
7E
EE
EE
E7
E7
ENDCHAR
STARTCHAR underscore
ENCODING 95
SWIDTH 569 0
DWIDTH 11 0
BBX 10 3 1 -4
BITMAP
FF80
FFC0
FFC0
ENDCHAR
STARTCHAR grave
ENCODING 96
SWIDTH 302 0
DWIDTH 6 0
BBX 6 5 0 11
BITMAP
40
F0
F8
3C
18
ENDCHAR
STARTCHAR a
ENCODING 97
SWIDTH 544 0
DWIDTH 11 0
BBX 9 10 1 0
BITMAP
7E00
FF00
FF80
0380
7F80
FF80
E380
FF80
FF80
7E00
ENDCHAR
STARTCHAR b
ENCODING 98
SWIDTH 590 0
DWIDTH 12 0
BBX 10 13 1 0
BITMAP
E000
E000
E000
FF00
FF80
FFC0
E3C0
E1C0
E1C0
E3C0
FFC0
FF80
3E00
ENDCHAR
STARTCHAR c
ENCODING 99
SWIDTH 489 0
DWIDTH 10 0
BBX 8 10 1 0
BITMAP
3E
7F
FF
F0
E0
E0
F0
FF
7F
1E
ENDCHAR
STARTCHAR d
ENCODING 100
SWIDTH 586 0
DWIDTH 12 0
BBX 10 13 1 0
BITMAP
0380
03C0
03C0
3FC0
7FC0
FFC0
E3C0
E3C0
E3C0
E3C0
FFC0
7F80
3F00
ENDCHAR
STARTCHAR e
ENCODING 101
SWIDTH 549 0
DWIDTH 11 0
BBX 9 10 1 0
BITMAP
3E00
7F00
FF80
E380
FF80
FF00
E000
FF80
7F80
1F00
ENDCHAR
STARTCHAR f
ENCODING 102
SWIDTH 430 0
DWIDTH 9 0
BBX 7 13 1 0
BITMAP
3E
7E
FE
E0
FE
FE
FC
E0
E0
E0
E0
E0
E0
ENDCHAR
STARTCHAR g
ENCODING 103
SWIDTH 567 0
DWIDTH 11 0
BBX 9 14 1 -4
BITMAP
3E00
7F80
FF80
E380
E380
E380
E380
FF80
7F80
3F80
0380
FF80
FF00
7E00
ENDCHAR
STARTCHAR h
ENCODING 104
SWIDTH 585 0
DWIDTH 12 0
BBX 10 13 1 0
BITMAP
E000
E000
E000
FF00
FF80
FF80
E3C0
E3C0
E3C0
E3C0
E3C0
E3C0
E1C0
ENDCHAR
STARTCHAR i
ENCODING 105
SWIDTH 282 0
DWIDTH 6 0
BBX 4 15 1 0
BITMAP
60
F0
F0
60
00
E0
F0
F0
F0
F0
F0
F0
F0
F0
F0
ENDCHAR
STARTCHAR j
ENCODING 106
SWIDTH 287 0
DWIDTH 6 0
BBX 5 19 0 -4
BITMAP
70
78
78
30
00
70
78
78
78
78
78
78
78
78
78
78
70
F0
E0
ENDCHAR
STARTCHAR k
ENCODING 107
SWIDTH 555 0
DWIDTH 11 0
BBX 10 13 1 0
BITMAP
E000
E000
E000
E380
E780
E780
EF00
FE00
FE00
EF00
E780
E7C0
E380
ENDCHAR
STARTCHAR l
ENCODING 108
SWIDTH 280 0
DWIDTH 6 0
BBX 4 13 1 0
BITMAP
E0
E0
F0
F0
F0
F0
F0
F0
F0
F0
F0
F0
F0
ENDCHAR
STARTCHAR m
ENCODING 109
SWIDTH 846 0
DWIDTH 17 0
BBX 15 10 1 0
BITMAP
3EF8
FFFC
FFFE
E39E
E39E
E39E
E39E
E39E
E39E
E38E
ENDCHAR
STARTCHAR n
ENCODING 110
SWIDTH 583 0
DWIDTH 12 0
BBX 10 10 1 0
BITMAP
3F00
FF80
FF80
E3C0
E3C0
E3C0
E3C0
E3C0
E3C0
E3C0
ENDCHAR
STARTCHAR o
ENCODING 111
SWIDTH 586 0
DWIDTH 12 0
BBX 10 10 1 0
BITMAP
3E00
7F80
FFC0
E3C0
E1C0
E1C0
E3C0
FFC0
7F80
3E00
ENDCHAR
STARTCHAR p
ENCODING 112
SWIDTH 585 0
DWIDTH 12 0
BBX 10 14 1 -4
BITMAP
3E00
FF80
FFC0
E3C0
E1C0
E1C0
E3C0
FFC0
FF80
FF00
E000
E000
E000
E000
ENDCHAR
STARTCHAR q
ENCODING 113
SWIDTH 587 0
DWIDTH 12 0
BBX 10 14 1 -4
BITMAP
3F00
7F80
FFC0
E3C0
E3C0
E3C0
E3C0
FFC0
7FC0
3FC0
03C0
03C0
03C0
01C0
ENDCHAR
STARTCHAR r
ENCODING 114
SWIDTH 411 0
DWIDTH 8 0
BBX 7 10 1 0
BITMAP
3C
FE
FE
E0
E0
E0
E0
E0
E0
E0
ENDCHAR
STARTCHAR s
ENCODING 115
SWIDTH 492 0
DWIDTH 10 0
BBX 8 10 1 0
BITMAP
3E
FF
FF
E0
FC
3F
07
FF
FF
7E
ENDCHAR
STARTCHAR t
ENCODING 116
SWIDTH 400 0
DWIDTH 8 0
BBX 6 12 1 0
BITMAP
E0
E0
E0
FC
FC
FC
E0
E0
E0
FC
FC
7C
ENDCHAR
STARTCHAR u
ENCODING 117
SWIDTH 582 0
DWIDTH 12 0
BBX 10 10 1 0
BITMAP
E380
E3C0
E3C0
E3C0
E3C0
E3C0
F3C0
FFC0
7F80
3F00
ENDCHAR
STARTCHAR v
ENCODING 118
SWIDTH 545 0
DWIDTH 11 0
BBX 10 10 0 0
BITMAP
F1C0
71C0
71C0
7BC0
3BC0
3B80
3B80
1F00
1F00
0F00
ENDCHAR
STARTCHAR w
ENCODING 119
SWIDTH 791 0
DWIDTH 16 0
BBX 15 10 0 0
BITMAP
F00E
73CE
73CE
73CE
77EE
7FEE
3E7C
3E7C
3E7C
1E38
ENDCHAR
STARTCHAR x
ENCODING 120
SWIDTH 523 0
DWIDTH 10 0
BBX 9 10 1 0
BITMAP
C300
E780
F780
7F00
3E00
3E00
7F00
FF00
E780
C380
ENDCHAR
STARTCHAR y
ENCODING 121
SWIDTH 551 0
DWIDTH 11 0
BBX 11 14 0 -4
BITMAP
F1C0
71E0
71C0
79C0
7BC0
3BC0
3B80
3F80
1F80
0F00
1F00
3E00
3C00
3800
ENDCHAR
STARTCHAR z
ENCODING 122
SWIDTH 481 0
DWIDTH 10 0
BBX 8 10 1 0
BITMAP
FF
FF
FF
1E
3C
78
78
FF
FF
FF
ENDCHAR
STARTCHAR braceleft
ENCODING 123
SWIDTH 327 0
DWIDTH 7 0
BBX 6 16 0 -3
BITMAP
1C
3C
38
38
38
38
78
78
F8
78
38
38
38
38
3C
1C
ENDCHAR
STARTCHAR bar
ENCODING 124
SWIDTH 281 0
DWIDTH 6 0
BBX 3 16 1 -3
BITMAP
E0
E0
E0
E0
E0
E0
E0
E0
E0
E0
E0
E0
E0
E0
E0
E0
ENDCHAR
STARTCHAR braceright
ENCODING 125
SWIDTH 327 0
DWIDTH 7 0
BBX 6 16 0 -3
BITMAP
70
F0
78
78
78
78
78
3C
3C
78
78
78
78
78
F0
70
ENDCHAR
STARTCHAR asciitilde
ENCODING 126
SWIDTH 503 0
DWIDTH 10 0
BBX 10 4 0 3
BITMAP
3080
7FC0
FFC0
6780
ENDCHAR
ENDFONT
